<svg id="logo_red_cliomuse" xmlns="http://www.w3.org/2000/svg" xmlns:xlink="http://www.w3.org/1999/xlink" width="96" height="35" viewBox="0 0 96 35">
  <defs>
    <clipPath id="clip-path">
      <rect id="Rectangle_772" data-name="Rectangle 772" width="96" height="35" transform="translate(1857 570)" fill="#fff"/>
    </clipPath>
    <linearGradient id="linear-gradient" x1="0.261" y1="1.204" x2="1.209" y2="0.255" gradientUnits="objectBoundingBox">
      <stop offset="0" stop-color="#f15e5c"/>
      <stop offset="1" stop-color="#d54553"/>
    </linearGradient>
  </defs>
  <g id="logo_red_cliomuse-2" data-name="logo_red_cliomuse" transform="translate(-1857 -570)" clip-path="url(#clip-path)">
    <g id="logo_color" transform="translate(1857 575.085)">
      <rect id="Rectangle_773" data-name="Rectangle 773" width="24.829" height="24.829" rx="2.185" fill="url(#linear-gradient)"/>
      <path id="Path_1583" data-name="Path 1583" d="M16.781,22.375a.716.716,0,0,1-.293-.063,33.437,33.437,0,0,1-5.186-2.76,6.024,6.024,0,0,1-1.83-3.561,6,6,0,0,1,.484-3.019,6.211,6.211,0,0,1,1.38-1.821,6.34,6.34,0,0,1,1.872-1.07,5.428,5.428,0,0,1,1.858-.358c.046,0,.093,0,.139,0a5.825,5.825,0,0,1,2.235.515,5.28,5.28,0,0,1,1.636,1.2l.055.058a7.815,7.815,0,0,1,1.1,1.341c.282.462.67,1.181.686,1.211a.721.721,0,0,1,.015.656l-3.508,7.26a.721.721,0,0,1-.648.406Zm-1.715-11.21a4.031,4.031,0,0,0-1.373.275,4.846,4.846,0,0,0-1.428.815,4.878,4.878,0,0,0-1.017,1.362,4.7,4.7,0,0,0-.341,2.208,4.55,4.55,0,0,0,1.353,2.648,27.538,27.538,0,0,0,4.179,2.235l3.04-6.291c-.135-.245-.324-.58-.473-.825a6.76,6.76,0,0,0-.917-1.1l-.055-.058a3.8,3.8,0,0,0-1.2-.89,4.417,4.417,0,0,0-1.67-.379Z" transform="translate(-5.84 -5.882)" fill="#fff"/>
      <path id="Path_1584" data-name="Path 1584" d="M23.5,26.87a3.552,3.552,0,0,1-2.518-1.036L18.974,23.98a.721.721,0,0,1-.043-1.016L22.74,18.8a.721.721,0,0,1,1-.058l2.215,1.924L26,20.7a3.661,3.661,0,0,1,1.072,2.548,3.524,3.524,0,0,1-1.028,2.572A3.569,3.569,0,0,1,23.5,26.87Zm-3.02-3.464,1.49,1.377.021.02a2.142,2.142,0,0,0,3.03-.006h0a2.1,2.1,0,0,0,.606-1.53,2.226,2.226,0,0,0-.632-1.534L23.33,20.289Z" transform="translate(-5.84 -5.882)" fill="#fff"/>
      <path id="Path_1585" data-name="Path 1585" d="M40.6,24.349H38.855v4.422H37.746V24.349H36.012v-1H40.6Z" transform="translate(-5.84 -5.882)" fill="#d54552"/>
      <path id="Path_1586" data-name="Path 1586" d="M46.268,24.057a2.79,2.79,0,0,1,0,4,2.98,2.98,0,0,1-4.084,0,2.807,2.807,0,0,1,0-4,2.824,2.824,0,0,1,2.038-.809A2.856,2.856,0,0,1,46.268,24.057Zm-3.287.719a1.924,1.924,0,0,0,0,2.568,1.813,1.813,0,0,0,2.5,0,1.9,1.9,0,0,0,0-2.564,1.8,1.8,0,0,0-2.494,0Z" transform="translate(-5.84 -5.882)" fill="#d54552"/>
      <path id="Path_1587" data-name="Path 1587" d="M53.056,26.527a2.287,2.287,0,0,1-.645,1.705,2.471,2.471,0,0,1-3.312,0,2.287,2.287,0,0,1-.645-1.705v-3.18h1.11v3.262a1.207,1.207,0,0,0,.333.912,1.315,1.315,0,0,0,1.722,0,1.221,1.221,0,0,0,.33-.912V23.347h1.109Z" transform="translate(-5.84 -5.882)" fill="#d54552"/>
      <path id="Path_1588" data-name="Path 1588" d="M58.036,28.771,56.63,26.856h-.814v1.915H54.707V23.347h2.038a2.053,2.053,0,0,1,1.409.481A1.61,1.61,0,0,1,58.7,25.1a1.669,1.669,0,0,1-.255.917,1.726,1.726,0,0,1-.7.62l1.536,2.137Zm-2.219-2.893h.929a.826.826,0,0,0,.6-.214.757.757,0,0,0,.218-.567.741.741,0,0,0-.222-.559.829.829,0,0,0-.6-.214h-.929Z" transform="translate(-5.84 -5.882)" fill="#d54552"/>
      <path id="Path_1589" data-name="Path 1589" d="M63.158,23.527a1.962,1.962,0,0,1,.711.748l-.757.583a1.224,1.224,0,0,0-1.036-.624.82.82,0,0,0-.481.135.445.445,0,0,0-.193.39.433.433,0,0,0,.144.341,2.041,2.041,0,0,0,.489.283l.616.271a2.989,2.989,0,0,1,1.011.67,1.318,1.318,0,0,1,.329.917,1.461,1.461,0,0,1-.534,1.183,2.061,2.061,0,0,1-1.364.444,2.381,2.381,0,0,1-1.238-.325A2.352,2.352,0,0,1,60,27.669l.764-.575a1.626,1.626,0,0,0,1.331.789.9.9,0,0,0,.567-.16.53.53,0,0,0,.206-.44.478.478,0,0,0-.095-.292.67.67,0,0,0-.213-.193q-.119-.066-.382-.189l-.583-.263a2.989,2.989,0,0,1-.974-.657,1.286,1.286,0,0,1-.341-.9,1.376,1.376,0,0,1,.51-1.113,1.953,1.953,0,0,1,1.29-.423A2.033,2.033,0,0,1,63.158,23.527Z" transform="translate(-5.84 -5.882)" fill="#d54552"/>
      <path id="Path_1590" data-name="Path 1590" d="M48.507,18.651h-.943a.524.524,0,0,1-.523-.524V8.12a.523.523,0,0,1,.523-.523h.943a.523.523,0,0,1,.524.523h0V18.127a.524.524,0,0,1-.524.524Z" transform="translate(-5.84 -5.882)" fill="#d54552"/>
      <path id="Path_1591" data-name="Path 1591" d="M52.9,7.817a1.146,1.146,0,0,1,.363.691,1.248,1.248,0,0,1-.494,1.172,1.271,1.271,0,0,1-.774.246,1.25,1.25,0,0,1-.9-.354,1.158,1.158,0,0,1-.369-.87,1.175,1.175,0,0,1,.369-.884,1.253,1.253,0,0,1,.9-.355A1.275,1.275,0,0,1,52.9,7.817ZM52.466,18.65h-.93a.53.53,0,0,1-.53-.53h0V11.885a.53.53,0,0,1,.53-.53h.93a.53.53,0,0,1,.53.53h0V18.12a.53.53,0,0,1-.53.53h0Z" transform="translate(-5.84 -5.882)" fill="#d54552"/>
      <path id="Path_1592" data-name="Path 1592" d="M61.234,12.291a3.764,3.764,0,0,1,0,5.416,3.869,3.869,0,0,1-2.785,1.105,3.811,3.811,0,0,1-2.764-1.1A3.645,3.645,0,0,1,54.557,15a3.617,3.617,0,0,1,1.135-2.705,4.044,4.044,0,0,1,5.541,0Zm-4.127,1.282a2.021,2.021,0,0,0-.531,1.437,1.966,1.966,0,0,0,.531,1.421,1.921,1.921,0,0,0,2.7-.007,1.96,1.96,0,0,0,.538-1.415,2.011,2.011,0,0,0-.538-1.429,1.885,1.885,0,0,0-2.7-.007Z" transform="translate(-5.84 -5.882)" fill="#d54552"/>
      <path id="Path_1593" data-name="Path 1593" d="M77.712,9.182v8.941a.527.527,0,0,1-.527.527h-.934a.527.527,0,0,1-.527-.527h0V13.448l-2.245,2.827a.672.672,0,0,1-.527.254h0a.672.672,0,0,1-.526-.254l-2.245-2.827v4.674a.527.527,0,0,1-.527.527h-.934a.527.527,0,0,1-.527-.527V9.182a.436.436,0,0,1,.436-.436h0a.436.436,0,0,1,.344.168l3.981,5.108,3.981-5.109a.436.436,0,0,1,.344-.168h0A.436.436,0,0,1,77.712,9.182Z" transform="translate(-5.84 -5.882)" fill="#d54552"/>
      <path id="Path_1594" data-name="Path 1594" d="M86.393,15.438a3.231,3.231,0,0,1-3.346,3.389,3.326,3.326,0,0,1-2.425-.929,3.283,3.283,0,0,1-.951-2.46V11.911a.556.556,0,0,1,.556-.556h.878a.556.556,0,0,1,.556.556V15.6A1.325,1.325,0,0,0,83.047,17a1.324,1.324,0,0,0,.965-.383A1.358,1.358,0,0,0,84.4,15.6V11.911a.556.556,0,0,1,.556-.556h.881a.556.556,0,0,1,.556.556Z" transform="translate(-5.84 -5.882)" fill="#d54552"/>
      <path id="Path_1595" data-name="Path 1595" d="M93.09,12.655l-.373.455a.526.526,0,0,1-.7.094,2.22,2.22,0,0,0-1.257-.39q-.781,0-.781.516a.432.432,0,0,0,.17.346,2.254,2.254,0,0,0,.6.3l.707.3A4.689,4.689,0,0,1,93,15.194a1.762,1.762,0,0,1,.494,1.3,2.04,2.04,0,0,1-.8,1.71,3.241,3.241,0,0,1-2.04.619,3.623,3.623,0,0,1-2.712-1.055.523.523,0,0,1-.029-.7l.371-.45a.523.523,0,0,1,.734-.069,2.617,2.617,0,0,0,1.664.635,1.3,1.3,0,0,0,.663-.155.492.492,0,0,0,.265-.45.422.422,0,0,0-.17-.361,3.139,3.139,0,0,0-.582-.3l-.781-.324a4.5,4.5,0,0,1-1.5-.914,1.788,1.788,0,0,1-.494-1.312,1.934,1.934,0,0,1,.744-1.614,3.057,3.057,0,0,1,1.938-.582,3.423,3.423,0,0,1,2.255.75A.519.519,0,0,1,93.09,12.655Z" transform="translate(-5.84 -5.882)" fill="#d54552"/>
      <path id="Path_1596" data-name="Path 1596" d="M101.28,15.673h-4.7a1.856,1.856,0,0,0,.729,1.069,2.275,2.275,0,0,0,1.334.376,3.143,3.143,0,0,0,1.618-.455.517.517,0,0,1,.7.183l.3.493a.518.518,0,0,1-.15.7,4.352,4.352,0,0,1-2.527.792,3.946,3.946,0,0,1-2.859-1.1,3.63,3.63,0,0,1-1.134-2.719,3.763,3.763,0,0,1,3.817-3.817,3.3,3.3,0,0,1,3.434,3.39,4.484,4.484,0,0,1-.048.646.518.518,0,0,1-.513.444ZM97.226,13.2a2.036,2.036,0,0,0-.648,1.076h3.331a1.4,1.4,0,0,0-.472-1.076,1.626,1.626,0,0,0-1.105-.4A1.661,1.661,0,0,0,97.226,13.2Z" transform="translate(-5.84 -5.882)" fill="#d54552"/>
      <path id="Path_1597" data-name="Path 1597" d="M43.779,18.631a20.361,20.361,0,0,1-4.041-.273,5.733,5.733,0,0,1-3.026-2.315,5.742,5.742,0,0,1-.815-2.8,5.921,5.921,0,0,1,.446-2.128,6.015,6.015,0,0,1,1.169-1.677A5.063,5.063,0,0,1,39.09,8.315a5.549,5.549,0,0,1,2.132-.467,5.01,5.01,0,0,1,1.9.367l.069.026a7.428,7.428,0,0,1,1.474.695c.19.125.419.285.614.424a.522.522,0,0,1,.122.728l0,.006-.452.616a.522.522,0,0,1-.724.117c-.179-.127-.384-.271-.55-.379a5.923,5.923,0,0,0-1.131-.519L42.47,9.9a3.236,3.236,0,0,0-1.241-.246,3.749,3.749,0,0,0-1.417.317,3.334,3.334,0,0,0-1.019.74,4.2,4.2,0,0,0-.8,1.152,4.2,4.2,0,0,0-.282,1.413,3.963,3.963,0,0,0,.54,1.8,3.9,3.9,0,0,0,1.994,1.536,25.893,25.893,0,0,0,4.338.2.522.522,0,0,1,.527.511l.017.764a.523.523,0,0,1-.511.534h-.005C44.376,18.629,44.092,18.631,43.779,18.631Z" transform="translate(-5.84 -5.882)" fill="#d54552"/>
    </g>
  </g>
</svg>
